<mxfile host="app.diagrams.net" modified="2021-08-17T06:29:31.222Z" agent="5.0 (Windows NT 10.0; Win64; x64) AppleWebKit/537.36 (KHTML, like Gecko) Chrome/92.0.4515.131 Safari/537.36" etag="92pf-IYVLtLwYW_zMPhF" version="14.9.4" type="github">
  <diagram id="ZYZxxzhTcNQwUkJpnUor" name="Page-1">
    <mxGraphModel dx="929" dy="577" grid="1" gridSize="10" guides="1" tooltips="1" connect="1" arrows="1" fold="1" page="1" pageScale="1" pageWidth="850" pageHeight="1100" math="0" shadow="0">
      <root>
        <mxCell id="0" />
        <mxCell id="1" parent="0" />
        <mxCell id="iXHdGEbBNOJYzq9Ppc1g-1" value="" style="rounded=0;whiteSpace=wrap;html=1;" vertex="1" parent="1">
          <mxGeometry x="210" y="390" width="320" height="250" as="geometry" />
        </mxCell>
        <mxCell id="iXHdGEbBNOJYzq9Ppc1g-3" style="edgeStyle=orthogonalEdgeStyle;rounded=0;orthogonalLoop=1;jettySize=auto;html=1;exitX=0.5;exitY=0;exitDx=0;exitDy=0;" edge="1" parent="1" source="iXHdGEbBNOJYzq9Ppc1g-4" target="iXHdGEbBNOJYzq9Ppc1g-9">
          <mxGeometry relative="1" as="geometry" />
        </mxCell>
        <mxCell id="iXHdGEbBNOJYzq9Ppc1g-22" value="" style="edgeStyle=orthogonalEdgeStyle;rounded=0;orthogonalLoop=1;jettySize=auto;html=1;" edge="1" parent="1" source="iXHdGEbBNOJYzq9Ppc1g-4" target="iXHdGEbBNOJYzq9Ppc1g-21">
          <mxGeometry relative="1" as="geometry" />
        </mxCell>
        <mxCell id="iXHdGEbBNOJYzq9Ppc1g-24" style="edgeStyle=orthogonalEdgeStyle;rounded=0;orthogonalLoop=1;jettySize=auto;html=1;exitX=0;exitY=0.5;exitDx=0;exitDy=0;" edge="1" parent="1" source="iXHdGEbBNOJYzq9Ppc1g-4" target="iXHdGEbBNOJYzq9Ppc1g-20">
          <mxGeometry relative="1" as="geometry" />
        </mxCell>
        <mxCell id="iXHdGEbBNOJYzq9Ppc1g-25" style="edgeStyle=orthogonalEdgeStyle;rounded=0;orthogonalLoop=1;jettySize=auto;html=1;exitX=0;exitY=0.5;exitDx=0;exitDy=0;entryX=1;entryY=0.75;entryDx=0;entryDy=0;" edge="1" parent="1" source="iXHdGEbBNOJYzq9Ppc1g-4" target="iXHdGEbBNOJYzq9Ppc1g-5">
          <mxGeometry relative="1" as="geometry" />
        </mxCell>
        <mxCell id="iXHdGEbBNOJYzq9Ppc1g-4" value="Metrics Agent (Telegraf)" style="rounded=0;whiteSpace=wrap;html=1;" vertex="1" parent="1">
          <mxGeometry x="440" y="520" width="70" height="60" as="geometry" />
        </mxCell>
        <mxCell id="iXHdGEbBNOJYzq9Ppc1g-5" value="Agent" style="rounded=0;whiteSpace=wrap;html=1;" vertex="1" parent="1">
          <mxGeometry x="230" y="470" width="60" height="30" as="geometry" />
        </mxCell>
        <mxCell id="iXHdGEbBNOJYzq9Ppc1g-6" value="Azure Onboarded Provisioned Cluster" style="text;html=1;strokeColor=none;fillColor=none;align=center;verticalAlign=middle;whiteSpace=wrap;rounded=0;" vertex="1" parent="1">
          <mxGeometry x="300" y="610" width="200" height="20" as="geometry" />
        </mxCell>
        <mxCell id="iXHdGEbBNOJYzq9Ppc1g-7" value="" style="endArrow=none;dashed=1;html=1;dashPattern=1 3;strokeWidth=2;" edge="1" parent="1">
          <mxGeometry width="50" height="50" relative="1" as="geometry">
            <mxPoint x="100" y="350" as="sourcePoint" />
            <mxPoint x="830" y="350" as="targetPoint" />
            <Array as="points">
              <mxPoint x="380" y="350" />
            </Array>
          </mxGeometry>
        </mxCell>
        <mxCell id="iXHdGEbBNOJYzq9Ppc1g-28" style="edgeStyle=orthogonalEdgeStyle;rounded=0;orthogonalLoop=1;jettySize=auto;html=1;exitX=1;exitY=0.5;exitDx=0;exitDy=0;entryX=0;entryY=0.5;entryDx=0;entryDy=0;" edge="1" parent="1" source="iXHdGEbBNOJYzq9Ppc1g-9" target="iXHdGEbBNOJYzq9Ppc1g-15">
          <mxGeometry relative="1" as="geometry" />
        </mxCell>
        <mxCell id="iXHdGEbBNOJYzq9Ppc1g-9" value="Config Data plane Post Metrics API" style="rounded=0;whiteSpace=wrap;html=1;" vertex="1" parent="1">
          <mxGeometry x="200" y="250" width="120" height="60" as="geometry" />
        </mxCell>
        <mxCell id="iXHdGEbBNOJYzq9Ppc1g-14" value="" style="edgeStyle=orthogonalEdgeStyle;rounded=0;orthogonalLoop=1;jettySize=auto;html=1;" edge="1" parent="1" source="iXHdGEbBNOJYzq9Ppc1g-15" target="iXHdGEbBNOJYzq9Ppc1g-17">
          <mxGeometry relative="1" as="geometry" />
        </mxCell>
        <mxCell id="iXHdGEbBNOJYzq9Ppc1g-15" value="Metrics Extension" style="rounded=0;whiteSpace=wrap;html=1;" vertex="1" parent="1">
          <mxGeometry x="440" y="250" width="120" height="60" as="geometry" />
        </mxCell>
        <mxCell id="iXHdGEbBNOJYzq9Ppc1g-17" value="Geneva" style="rounded=0;whiteSpace=wrap;html=1;" vertex="1" parent="1">
          <mxGeometry x="440" y="110" width="120" height="60" as="geometry" />
        </mxCell>
        <mxCell id="iXHdGEbBNOJYzq9Ppc1g-18" value="Azure" style="text;html=1;strokeColor=none;fillColor=none;align=center;verticalAlign=middle;whiteSpace=wrap;rounded=0;" vertex="1" parent="1">
          <mxGeometry x="662.5" y="320" width="70" height="20" as="geometry" />
        </mxCell>
        <mxCell id="iXHdGEbBNOJYzq9Ppc1g-19" value="On prem Customer Datacenter" style="text;html=1;strokeColor=none;fillColor=none;align=center;verticalAlign=middle;whiteSpace=wrap;rounded=0;" vertex="1" parent="1">
          <mxGeometry x="645" y="380" width="105" height="20" as="geometry" />
        </mxCell>
        <mxCell id="iXHdGEbBNOJYzq9Ppc1g-20" value="Agent" style="rounded=0;whiteSpace=wrap;html=1;" vertex="1" parent="1">
          <mxGeometry x="230" y="510" width="60" height="30" as="geometry" />
        </mxCell>
        <mxCell id="iXHdGEbBNOJYzq9Ppc1g-21" value="Agent" style="rounded=0;whiteSpace=wrap;html=1;" vertex="1" parent="1">
          <mxGeometry x="230" y="550" width="60" height="30" as="geometry" />
        </mxCell>
        <mxCell id="iXHdGEbBNOJYzq9Ppc1g-26" value="Scrapes Metrics of all the agents" style="text;html=1;strokeColor=none;fillColor=none;align=center;verticalAlign=middle;whiteSpace=wrap;rounded=0;" vertex="1" parent="1">
          <mxGeometry x="385" y="490" width="40" height="20" as="geometry" />
        </mxCell>
        <mxCell id="iXHdGEbBNOJYzq9Ppc1g-27" style="edgeStyle=orthogonalEdgeStyle;rounded=0;orthogonalLoop=1;jettySize=auto;html=1;exitX=0.5;exitY=1;exitDx=0;exitDy=0;" edge="1" parent="1" source="iXHdGEbBNOJYzq9Ppc1g-26" target="iXHdGEbBNOJYzq9Ppc1g-26">
          <mxGeometry relative="1" as="geometry" />
        </mxCell>
        <mxCell id="iXHdGEbBNOJYzq9Ppc1g-29" value="Using statsD" style="text;html=1;strokeColor=none;fillColor=none;align=center;verticalAlign=middle;whiteSpace=wrap;rounded=0;" vertex="1" parent="1">
          <mxGeometry x="340" y="290" width="80" height="20" as="geometry" />
        </mxCell>
      </root>
    </mxGraphModel>
  </diagram>
</mxfile>
